<?xml version="1.0" encoding="utf-8"?>
<!-- Generator: Adobe Illustrator 22.1.0, SVG Export Plug-In . SVG Version: 6.00 Build 0)  -->
<svg version="1.1" id="Layer_1" xmlns="http://www.w3.org/2000/svg" xmlns:xlink="http://www.w3.org/1999/xlink" x="0px" y="0px"
	 viewBox="0 0 24 24" style="enable-background:new 0 0 24 24;" xml:space="preserve">
<style type="text/css">
	.st0{fill:none;}
</style>
<path class="st0" d="M0,0h24v24H0V0z"/>
<g>
	<polygon class="st0" points="13.9,8.6 17.3,12 13.9,15.4 14.9,16.4 19.4,12 14.9,7.6 	"/>
	<path d="M19,4H5C3.9,4,3,4.9,3,6v12c0,1.1,0.9,2,2,2h14c1.1,0,2-0.9,2-2V6C21,4.9,20.1,4,19,4z M10.1,15.4l-1,1L4.6,12l4.4-4.4l1,1
		L6.7,12L10.1,15.4z M14.9,16.4l-1-1l3.4-3.4l-3.4-3.4l1-1l4.4,4.4L14.9,16.4z"/>
</g>
</svg>
