<svg id="Layer_1" data-name="Layer 1" xmlns="http://www.w3.org/2000/svg" viewBox="0 0 682 682"><title>gitcoin</title><path d="M461.75,658.83c-52.95-3.71-100.29,2.85-147.28-6.82C189.59,626.32,92.81,513.35,88.62,386c-4-120.6,48.32-210,152.54-269.34,11.58-6.59,16.46-13.38,15.68-26.41-.88-14.59-.28-29.3.35-43.93.59-13.8,7.71-23.74,22-23.15,13.38.55,19.05,10.59,19,23.66,0,6-1.3,12.41.39,17.89C301.3,73.47,288.35,90,309.5,90c27.76,0,34.57-5.92,35-27.95.32-16.68-1.83-35.48,21.15-38.86,14.3-2.1,21.6,10.86,20.71,38.15C385.86,76.82,389.7,83,406.66,85c66.95,7.88,124.7,36.09,172.44,84.1,16.27,16.36,16.28,21.82-.05,37.49-28.93,27.75-28.52,27.55-11.81,63.42C601,342.48,600,414.16,559.83,484c-7,12.12-8.15,20.6,5.17,27.6,23.82,12.5,30.42,32.5,28.19,58.29-1.84,21.15-.76,42.6-.34,63.9.35,17.52-7.12,25.5-25.07,25.23C530.49,658.44,493.19,658.83,461.75,658.83ZM453.9,603.4c14.45,0,39.74.1,65-.07,5.74,0,12.14,1.31,15.95-5.31,5.74-9.95.61-38.42-8.92-45.7C486.32,522,446.46,492,406.81,461.69a25.58,25.58,0,0,0-20.24-5.49c-38.26,4.7-68.07-10-87.34-43-17.7-30.32-16-61.74,3.67-90.48,21.15-30.84,51.26-43.26,88.49-35.7,9.94,2,17.77.26,25.42-6.94Q459,240.39,502.05,201.7c10.58-9.45,11.67-15.56-1.36-24-56.78-36.82-117.84-45.3-183.4-31.51-16.93,3.56-21.08,11.73-20.39,27.46,1,23.25.39,46.58,0,69.87-.25,13.76-6.37,23.33-21.53,23.15-14.55-.17-19.24-9.74-19.31-22.66-.08-16,.25-32-.14-47.92-.15-6.3,3.5-15.1-3-18.32-6.3-3.14-12,4.25-16.92,8.21-74,60-106.91,136.68-87.44,231.07C166.91,506,222.51,563.81,308.38,592.17,352.2,606.64,397.91,602.51,453.9,603.4Zm78.32-233.22a171.39,171.39,0,0,0-17.51-75.13c-6.46-13.35-12.68-19.79-25.39-5.51C481,298.94,471,307,461.27,315c-8.25,6.76-11.16,13.6-6.61,24.18,7,16.32,11.24,35.8,2.84,50.45-18.55,32.32,3.16,44.22,24,58.24a77.55,77.55,0,0,1,9.46,7.33c9.42,8.75,15.51,6.42,21.36-4.56A169,169,0,0,0,532.22,370.18Zm-127.66,1.3c.14-16.16-14.34-30.54-30.57-30.37s-28.3,12.68-28.61,29.42c-.32,18.11,11.48,29.94,29.71,29.75C391.08,400.12,404.43,387.08,404.56,371.48Z"/></svg>