<?xml version="1.0" encoding="utf-8"?>
<!-- Generator: Adobe Illustrator 22.1.0, SVG Export Plug-In . SVG Version: 6.00 Build 0)  -->
<svg version="1.1" id="Layer_1" xmlns="http://www.w3.org/2000/svg" xmlns:xlink="http://www.w3.org/1999/xlink" x="0px" y="0px"
	 viewBox="0 0 682 682" style="enable-background:new 0 0 682 682;" xml:space="preserve">
<g>
	<path d="M359.6,29.4c12.7,1.7,25.6,2.8,38.1,5.3c113.3,23,194.7,87.1,238.6,193.9c59.7,145.3,6.3,307-126,391.2
		c-20.5,13-42.2,23.4-65.2,31.2c-14.5,4.9-24.2-2.1-24.2-17.3c0.1-28.2,0.2-56.3,0.3-84.5c0-21.6-4.3-41.8-20.5-58.8
		c10.8-2,20.9-3.7,30.9-5.7c14.4-2.9,28.3-7.4,41.5-13.9c40.2-19.6,61.3-53.1,68.8-96c4.1-23.7,5.7-47.5,0.6-71.4
		c-4.2-19.7-12.8-37.3-25.8-52.5c-3-3.5-3.3-6.4-2-10.6c7.7-25.4,5.1-50.3-3.6-75c-1.3-3.7-3.7-4.4-7-4.5
		c-12.7-0.4-24.5,3.3-36.1,7.9c-14.7,5.9-28.4,13.5-41.4,22.4c-3.4,2.3-6.5,2.8-10.5,1.8c-49.5-12.7-99.1-12.7-148.6,0
		c-4,1-7,0.5-10.5-1.8c-20.2-13.1-41-24.6-65-29.3c-16.7-3.2-18.3-2.3-22.8,13.7c-6.3,22.3-7,44.6,0.2,66.8c0.9,2.9,0.6,4.8-1.3,7.1
		c-21.5,25.1-30.7,54.3-29.9,87.2c0.5,21.9,2.9,43.4,10.2,64.1c15.5,44.3,48,69.3,92.1,81.4c13.5,3.7,27.2,5.9,42.1,7.9
		c-4.5,5.7-8.8,10.6-11.6,16.4c-3.3,6.8-5.9,13.9-6.9,21.4c-0.5,3.6-2.2,5.3-5.4,6.6c-35.4,14.6-67,4.9-87.7-27.3
		c-6.4-10-14-18.8-23.9-25.5c-9.8-6.6-20.5-9.3-32.2-7.7c-3.1,0.4-6.5,0.8-7.8,4.1c-1.4,3.7,1.2,6.3,3.6,8.6c1.6,1.5,3.2,3.2,5,4.3
		c18.8,10.7,29.7,28.1,37.4,47.1c11.6,28.7,33.6,40.4,62.5,42.5c13.5,1,27.1,0.4,40.4-2.3c4.6-0.9,5.7,0.6,5.7,4.9
		c0,16.4,0.2,32.8,0.4,49.2c0.2,16.5-9.6,23.7-25.1,18.3c-63.1-22.3-114.7-60.2-154.1-114.2c-35.4-48.6-55.4-103.1-59.9-163.2
		c-0.1-2-0.8-3.9-1.2-5.8c0-12.4,0-24.9,0-37.3c0.4-2.1,1-4.2,1.2-6.4c2.4-33.4,9.6-65.8,23-96.4c46-105.2,125.4-169.5,238-192.6
		c12.7-2.6,25.8-3.7,38.7-5.4C334.7,29.4,347.1,29.4,359.6,29.4z"/>
</g>
</svg>
